#!OML:ASF F:\VICON\USERDATA\INSTALL\rory3\rory3.ASF
:FULLY-SPECIFIED
:DEGREES
19
root 2.16933 18.3944 45.5991 -5.20482 11.9229 -2.42982
lowerback 15.4636 -4.1177 -6.41548
upperback -3.41929 -6.48377 2.91763
thorax -11.4097 -2.50316 8.44531
lowerneck 4.08409 -20.5777 -9.02227
upperneck 10.5632 -28.0982 2.6317
head 4.18541 -14.1817 0.984484
rclavicle 2.16178e-015 -1.19271e-014
rhumerus -75.4161 -86.7843 37.1144
rradius 34.4314
rwrist -56.2666
rhand -12.6507 -4.81109
rfingers 7.12502
rthumb 13.4299 -34.3582
lclavicle 2.16178e-015 -1.19271e-014
lhumerus -53.8332 11.7497 67.7495
lradius 48.6621
lwrist 9.87231
lhand -6.80045 54.0428
lfingers 7.12502
lthumb 19.0627 83.1286
rfemur -0.82713 1.21658 21.9831
rtibia 26.1415
rfoot -19.6551 -23.3115
rtoes 14.3309
lfemur -3.18939 -10.3494 -17.7672
ltibia 25.9696
lfoot -13.9378 3.38483
ltoes -15.2365
20
root 2.16973 18.3929 45.593 -5.1453 11.9496 -2.4991
lowerback 15.4577 -4.10837 -6.30005
upperback -3.49864 -6.44973 2.92142
thorax -11.5146 -2.48527 8.38374
lowerneck 5.72732 -20.6056 -9.79894
upperneck 9.74503 -28.3613 3.76505
head 3.96687 -14.3323 1.5361
rclavicle 5.97845e-014 1.37161e-014
rhumerus -71.8616 -86.4405 33.621
rradius 34.3415
rwrist -56.6934
rhand -12.6025 -4.67845
rfingers 7.12502
rthumb 13.4763 -34.2225
lclavicle 5.97845e-014 1.37161e-014
lhumerus -53.862 11.61 67.7066
lradius 48.535
lwrist 9.90793
lhand -6.92607 53.5597
lfingers 7.12502
lthumb 18.9419 82.6573
rfemur -0.966694 1.22313 22.0615
rtibia 26.2366
rfoot -19.6479 -23.412
rtoes 13.905
lfemur -3.25321 -10.3191 -17.6639
ltibia 25.9015
lfoot -13.9006 3.2551
ltoes -15.0939
21
root 2.17587 18.3984 45.5836 -5.00626 11.9995 -2.30922
lowerback 15.4745 -4.09138 -6.35809
upperback -3.55586 -6.4518 2.83017
thorax -11.5946 -2.4785 8.32191
lowerneck 5.63409 -20.2198 -9.79832
upperneck 9.83294 -27.872 4.09144
head 4.02092 -14.0811 1.63905
rclavicle -1.10673e-013 -3.95581e-014
rhumerus -70.6219 -86.3136 32.2791
rradius 34.4662
rwrist -56.8016
rhand -12.6309 -4.55482
rfingers 7.12502
rthumb 13.449 -34.1006
lclavicle -1.10673e-013 -3.95581e-014
lhumerus -53.7226 11.4794 67.6626
lradius 48.3981
lwrist 9.85532
lhand -6.7573 53.5011
lfingers 7.12502
lthumb 19.1042 82.5829
rfemur -1.17089 1.2222 21.8096
rtibia 26.3663
rfoot -19.6428 -23.3739
rtoes 14.1593
lfemur -3.35296 -10.2939 -17.8715
ltibia 25.7983
lfoot -13.7977 3.23338
ltoes -14.9355
22
root 2.18928 18.4027 45.5748 -4.88729 12.1011 -1.96915
lowerback 15.4782 -4.10147 -6.51074
upperback -3.56781 -6.51242 2.69226
thorax -11.6004 -2.50132 8.26784
lowerneck 6.23813 -19.901 -10.0763
upperneck 9.44341 -27.5581 4.87874
head 3.93339 -13.928 1.97221
rclavicle 7.69794e-014 -1.39149e-015
rhumerus -64.052 -86.0412 25.49
rradius 34.7197
rwrist -57.1804
rhand -12.6969 -4.57276
rfingers 7.12502
rthumb 13.3854 -34.1228
lclavicle 7.69794e-014 -1.39149e-015
lhumerus -53.6148 11.4781 67.5569
lradius 48.3774
lwrist 9.62066
lhand -6.46037 53.7395
lfingers 7.12502
lthumb 19.3897 82.7928
rfemur -1.30689 0.824172 21.2827
rtibia 26.4732
rfoot -19.4268 -23.0399
rtoes 13.5289
lfemur -3.37789 -10.3259 -18.3038
ltibia 25.7006
lfoot -13.6784 3.25143
ltoes -14.9329
23
root 2.19447 18.401 45.5663 -4.83594 12.0756 -1.7305
lowerback 15.5606 -4.02911 -6.64634
upperback -3.66345 -6.46265 2.59668
thorax -11.7656 -2.45692 8.24513
lowerneck 7.6984 -19.5796 -10.6267
upperneck 8.53749 -27.3278 6.0289
head 3.64696 -13.8409 2.53768
rclavicle -3.45637e-014 -1.98785e-015
rhumerus -52.9547 -84.7934 14.2195
rradius 35.0409
rwrist -58.4553
rhand -13.3579 -4.39828
rfingers 7.12502
rthumb 12.7482 -33.9891
lclavicle -3.45637e-014 -1.98785e-015
lhumerus -53.6475 11.3607 67.5174
lradius 48.2928
lwrist 9.47586
lhand -6.33454 53.9668
lfingers 7.12502
lthumb 19.5107 83.0079
rfemur -1.40716 0.531704 20.9232
rtibia 26.5847
rfoot -19.3355 -22.8065
rtoes 13.1271
lfemur -3.34893 -10.2641 -18.5767
ltibia 25.5951
lfoot -13.7247 2.81907
ltoes -13.7906
24
root 2.1933 18.4025 45.5619 -4.77105 12.0462 -1.64788
lowerback 15.5168 -3.99356 -6.72361
upperback -3.74115 -6.43369 2.5734
thorax -11.8294 -2.43198 8.25799
lowerneck 8.90477 -19.1744 -11.2325
upperneck 7.98365 -26.981 7.04332
head 3.48225 -13.7008 3.03614
rclavicle 7.49667e-014 -2.76311e-014
rhumerus -51.8385 -84.4936 13.0518
rradius 35.2379
rwrist -58.6555
rhand -12.2935 -6.53986
rfingers 7.12502
rthumb 13.7742 -36.0639
lclavicle 7.49667e-014 -2.76311e-014
lhumerus -53.677 11.1919 67.495
lradius 48.1558
lwrist 9.53399
lhand -6.38163 54.0783
lfingers 7.12502
lthumb 19.4655 83.1239
rfemur -1.52539 0.607755 20.8476
rtibia 26.683
rfoot -19.3791 -22.8719
rtoes 13.1344
lfemur -3.42916 -10.3289 -18.6572
ltibia 25.5475
lfoot -13.7464 2.11355
ltoes -12.5933
25
root 2.19049 18.4022 45.5572 -4.81085 11.939 -1.74418
lowerback 15.5031 -3.91862 -6.65356
upperback -3.70377 -6.31589 2.57695
thorax -11.8063 -2.38384 8.19229
lowerneck 9.6978 -18.7381 -11.6882
upperneck 7.54122 -26.5561 8.06548
head 3.38217 -13.5131 3.48238
rclavicle -1.05555e-013 9.74045e-015
rhumerus -52.0362 -84.3909 13.2332
rradius 35.2551
rwrist -58.778
rhand -12.7729 -5.87371
rfingers 7.12502
rthumb 13.3121 -35.4285
lclavicle -1.05555e-013 9.74045e-015
lhumerus -53.5255 11.034 67.4942
lradius 48.1058
lwrist 9.64277
lhand -6.63377 54.1406
lfingers 7.12502
lthumb 19.223 83.2106
rfemur -1.64503 0.788573 20.9959
rtibia 26.9367
rfoot -19.5747 -22.8497
rtoes 13.7947
lfemur -3.3756 -10.2802 -18.5352
ltibia 25.4539
lfoot -13.6903 2.15213
ltoes -12.6456
26
root 2.19042 18.3889 45.5512 -4.90925 11.8684 -2.0253
lowerback 15.5714 -3.88543 -6.36137
upperback -3.69608 -6.20842 2.63729
thorax -11.8788 -2.34643 8.07925
lowerneck 5.03335 -18.3677 -10.8777
upperneck 12.6859 -25.6513 5.13747
head 5.11819 -12.9771 1.96003
rclavicle -5.3324e-014 -1.03368e-014
rhumerus -49.3873 -83.9392 10.6292
rradius 34.9879
rwrist -59.2026
rhand -13.1168 -5.16896
rfingers 7.12502
rthumb 12.9806 -34.7451
lclavicle -5.3324e-014 -1.03368e-014
lhumerus -53.4871 10.9067 67.5029
lradius 48.1208
lwrist 9.61318
lhand -6.68997 54.0057
lfingers 7.12502
lthumb 19.169 83.081
rfemur -1.66505 0.907093 21.3281
rtibia 27.0157
rfoot -19.7083 -22.7785
rtoes 14.4979
lfemur -3.20317 -10.1098 -18.2384
ltibia 25.4182
lfoot -13.5383 3.00635
ltoes -15.1431
27
root 2.19204 18.3579 45.5433 -4.88216 11.8888 -1.96669
lowerback 15.6239 -3.86207 -6.3839
upperback -3.76041 -6.19038 2.61014
thorax -11.9882 -2.32772 8.06931
lowerneck 4.33483 -17.9582 -10.9862
upperneck 13.7787 -25.107 5.09649
head 5.53537 -12.6955 1.883
rclavicle -3.23025e-015 -7.35503e-015
rhumerus -56.2525 -84.7392 17.5149
rradius 35.1233
rwrist -58.1474
rhand -13.0183 -5.04895
rfingers 7.12502
rthumb 13.0755 -34.6191
lclavicle -3.23025e-015 -7.35503e-015
lhumerus -53.443 10.8563 67.4302
lradius 47.9587
lwrist 9.49457
lhand -6.72184 54.1077
lfingers 7.12502
lthumb 19.1383 83.1861
rfemur -1.73963 0.837109 21.2364
rtibia 27.0804
rfoot -19.6967 -22.7018
rtoes 14.5007
lfemur -2.98049 -9.84829 -18.329
ltibia 25.3919
lfoot -13.4529 3.6774
ltoes -19.3632
